<svg xmlns="http://www.w3.org/2000/svg" viewBox="0 0 120 120" fill="none">
  <defs>
    <linearGradient id="bg" x1="0%" y1="0%" x2="100%" y2="100%">
      <stop offset="0%" stop-color="#E85D04"/>
      <stop offset="50%" stop-color="#B7410E"/>
      <stop offset="100%" stop-color="#6B2D0E"/>
    </linearGradient>
    <linearGradient id="flame" x1="50%" y1="100%" x2="50%" y2="0%">
      <stop offset="0%" stop-color="#FFB347"/>
      <stop offset="40%" stop-color="#FF6B35"/>
      <stop offset="100%" stop-color="#FFD93D"/>
    </linearGradient>
    <linearGradient id="brick" x1="0%" y1="0%" x2="0%" y2="100%">
      <stop offset="0%" stop-color="#D2691E"/>
      <stop offset="100%" stop-color="#8B4513"/>
    </linearGradient>
  </defs>
  <rect width="120" height="120" rx="28" fill="url(#bg)"/>
  <rect x="18" y="62" width="84" height="38" rx="4" fill="url(#brick)" opacity="0.95"/>
  <rect x="22" y="58" width="18" height="10" rx="2" fill="#A0522D"/>
  <rect x="42" y="58" width="18" height="10" rx="2" fill="#CD853F"/>
  <rect x="62" y="58" width="18" height="10" rx="2" fill="#A0522D"/>
  <rect x="82" y="58" width="14" height="10" rx="2" fill="#CD853F"/>
  <rect x="26" y="48" width="16" height="9" rx="2" fill="#8B4513"/>
  <rect x="48" y="48" width="16" height="9" rx="2" fill="#A0522D"/>
  <rect x="70" y="48" width="16" height="9" rx="2" fill="#8B4513"/>
  <path d="M60 22c-6 14-18 26-18 42 0 12 8 22 18 22s18-10 18-22c0-16-12-28-18-42z" fill="url(#flame)"/>
  <ellipse cx="60" cy="38" rx="8" ry="12" fill="#FFF8E7" opacity="0.5"/>
</svg>
